# File created by Blade
# Date/Time:  Tue Jan 27 18:50:13 2015
#---------------------------------------------------------
:version 1.10
:name HOM
:units
  mass 1.0
  length 1.000000
  angle deg
:documentation
     Acclaim Skeleton File
:root
   axis xyz
   order TX TY TZ RX RY RZ
   position 0.000000 0.000000 0.000000
   orientation 0 0 0
:bonedata
   begin
      id 1
      name Spine_dum
      direction 0.000000 1.000000 0.000000
      length 5.195262
      axis 0.0 0.0 0.0 xyz
   end
   begin
      id 2
      name LeftUpLeg_dum
      direction 1.000000 0.000000 0.000000
      length 3.351363
      axis 0.0 0.0 0.0 xyz
   end
   begin
      id 3
      name RightUpLeg_dum
      direction -1.000000 0.000000 0.000000
      length 3.351363
      axis 0.0 0.0 0.0 xyz
   end
   begin
      id 4
      name Spine
      direction 0.000000 1.000000 0.000000
      length 0.000000
      axis 0.0 0.0 0.0 xyz
      dof rx ry rz
   end
   begin
      id 5
      name Spine_dum1
      direction 0.000000 1.000000 0.000000
      length 15.653875
      axis 0.0 0.0 0.0 xyz
   end
   begin
      id 6
      name Spine_dum2
      direction 0.000000 1.000000 0.000000
      length 10.329768
      axis 0.0 0.0 0.0 xyz
   end
   begin
      id 7
      name Spine_dum3
      direction 0.000000 1.000000 0.000000
      length 10.329768
      axis 0.0 0.0 0.0 xyz
   end
   begin
      id 8
      name Head
      direction 0.000000 1.000000 0.000000
      length 4.527550
      axis 0.0 0.0 0.0 xyz
      dof rx ry rz
   end
   begin
      id 9
      name LeftShoulder
      direction 1.000000 0.000000 0.000000
      length 6.996006
      axis 0.0 0.0 -90.0 xyz
      dof rx ry rz
   end
   begin
      id 10
      name LeftArm
      direction 1.000000 0.000000 0.000000
      length 10.209302
      axis 0.0 0.0 -90.0 xyz
      dof rx ry rz
   end
   begin
      id 11
      name LeftForeArm
      direction 1.000000 0.000000 0.000000
      length 8.563163
      axis 0.0 0.0 -90.0 xyz
      dof ry rz rx
   end
   begin
      id 12
      name LeftHand
      direction 0.000000 0.000000 0.000000
      length 0.000000
      axis 0.0 0.0 -90.0 xyz
      dof rx ry rz
   end
   begin
      id 13
      name LeftHand_dum1
      direction 0.000000 0.000000 0.000000
      length 0.000000
      axis 0.0 0.0 -90.0 xyz
   end
   begin
      id 14
      name LeftHand_dum2
      direction 1.000000 0.000000 0.000000
      length 3.937000
      axis 0.0 0.0 -90.0 xyz
   end
   begin
      id 15
      name LeftHandThumb1
      direction 0.000000 0.000000 1.000000
      length 3.937000
      axis 0.0 0.0 -90.0 xyz
      dof rx rz ry
   end
   begin
      id 16
      name RightShoulder
      direction -1.000000 0.000000 0.000000
      length 6.996006
      axis 0.0 0.0 90.0 xyz
      dof rx ry rz
   end
   begin
      id 17
      name RightArm
      direction -1.000000 0.000000 0.000000
      length 10.209302
      axis 0.0 0.0 90.0 xyz
      dof rx ry rz
   end
   begin
      id 18
      name RightForeArm
      direction -1.000000 0.000000 0.000000
      length 8.563163
      axis 0.0 0.0 90.0 xyz
      dof ry rz rx
   end
   begin
      id 19
      name RightHand
      direction 0.000000 0.000000 0.000000
      length 0.000000
      axis 0.0 0.0 90.0 xyz
      dof rx ry rz
   end
   begin
      id 20
      name RightHand_dum1
      direction 0.000000 0.000000 0.000000
      length 0.000000
      axis 0.0 0.0 90.0 xyz
   end
   begin
      id 21
      name RightHand_dum2
      direction -1.000000 0.000000 0.000000
      length 3.937000
      axis 0.0 0.0 90.0 xyz
   end
   begin
      id 22
      name RightHandThumb1
      direction 0.000000 0.000000 1.000000
      length 3.937000
      axis 0.0 0.0 90.0 xyz
      dof rx rz ry
   end
   begin
      id 23
      name LeftUpLeg
      direction 0.000000 -1.000000 0.000000
      length 16.346831
      axis 0.0 0.0 0.0 xyz
      dof rx ry rz
   end
   begin
      id 24
      name LeftLeg
      direction 0.000000 -1.000000 0.000000
      length 13.959795
      axis 0.0 0.0 0.0 xyz
      dof rx ry rz
   end
   begin
      id 25
      name LeftFoot
      direction 0.000000 -0.258819 0.965926
      length 5.165550
      axis 15.0 0.0 0.0 xyz
      dof rx ry rz
   end
   begin
      id 26
      name LeftToeBase
      direction 0.000000 0.000000 1.000000
      length 2.952750
      axis 0.0 0.0 0.0 xyz
      dof rx ry rz
   end
   begin
      id 27
      name RightUpLeg
      direction 0.000000 -1.000000 0.000000
      length 16.346831
      axis 0.0 0.0 0.0 xyz
      dof rx ry rz
   end
   begin
      id 28
      name RightLeg
      direction 0.000000 -1.000000 0.000000
      length 13.959795
      axis 0.0 0.0 0.0 xyz
      dof rx ry rz
   end
   begin
      id 29
      name RightFoot
      direction 0.000000 -0.258819 0.965926
      length 5.165550
      axis 15.0 0.0 0.0 xyz
      dof rx ry rz
   end
   begin
      id 30
      name RightToeBase
      direction 0.000000 0.000000 1.000000
      length 2.952750
      axis 0.0 0.0 0.0 xyz
      dof rx ry rz
   end
:hierarchy
   begin
      root Spine_dum LeftUpLeg_dum RightUpLeg_dum
      Spine_dum Spine
      LeftUpLeg_dum LeftUpLeg
      RightUpLeg_dum RightUpLeg
      Spine Spine_dum1 Spine_dum2 Spine_dum3
      Spine_dum1 Head
      Spine_dum2 LeftShoulder
      Spine_dum3 RightShoulder
      LeftShoulder LeftArm
      LeftArm LeftForeArm
      LeftForeArm LeftHand
      LeftHand LeftHand_dum1 LeftHand_dum2
      LeftHand_dum1 LeftHandThumb1
      RightShoulder RightArm
      RightArm RightForeArm
      RightForeArm RightHand
      RightHand RightHand_dum1 RightHand_dum2
      RightHand_dum1 RightHandThumb1
      LeftUpLeg LeftLeg
      LeftLeg LeftFoot
      LeftFoot LeftToeBase
      RightUpLeg RightLeg
      RightLeg RightFoot
      RightFoot RightToeBase
   end

# File created by Blade
# Date/Time:  Tue Jan 27 18:50:05 2015
# Frame Rate: 120.000 fps
#------------------------------------------------------
:FULLY-SPECIFIED
:DEGREES
1447
root 0.002463 31.870513 -6.251732 3.885461 -11.171351 -13.177706
Spine 6.722502 -6.039681 4.324475
Head 3.397729 -18.230535 10.625152
LeftShoulder -15.630207 17.335502 14.742696
LeftArm 7.097817 -35.559362 -75.444641
LeftForeArm -2.002240 -0.000000 127.254068
LeftHand -18.857524 0.000000 22.417809
LeftHandThumb1 -26.253704 0.000000 33.147579
RightShoulder -13.443323 -3.726951 -6.449906
RightArm 11.154550 -24.619418 70.686101
RightForeArm -28.384399 -0.000000 25.495431
RightHand -14.513240 -0.000000 11.525767
RightHandThumb1 -24.326973 -0.000000 -32.862282
LeftUpLeg -7.818365 17.423600 -1.172865
LeftLeg 19.122007 -0.000000 -0.000000
LeftFoot -36.674359 28.619094 -27.465555
LeftToeBase 8.852059 -0.000000 -0.000000
RightUpLeg -82.749489 -30.209542 17.003662
RightLeg 113.971151 -0.000000 -0.000000
RightFoot -1.951997 -8.835193 16.265081
RightToeBase 14.559075 -0.000000 -0.000000
1448
root -0.003391 31.872579 -6.226948 3.863664 -11.169022 -13.158068
Spine 6.639113 -5.969847 4.314015
Head 3.367015 -18.250993 10.579461
LeftShoulder -15.684010 17.314997 14.683884
LeftArm 7.006360 -35.621175 -75.378374
LeftForeArm -2.013312 0.000000 127.272997
LeftHand -18.846467 -0.000000 22.439696
LeftHandThumb1 -26.253704 0.000000 33.147579
RightShoulder -13.425431 -3.635352 -6.520677
RightArm 11.062845 -24.654958 70.759972
RightForeArm -28.411700 -0.000000 25.506844
RightHand -14.560947 -0.000000 11.460205
RightHandThumb1 -24.326973 -0.000000 -32.862282
LeftUpLeg -7.818535 17.473197 -1.159750
LeftLeg 19.281139 -0.000000 -0.000000
LeftFoot -36.672602 28.520794 -27.531922
LeftToeBase 8.707863 -0.000000 -0.000000
RightUpLeg -82.692601 -30.317990 17.211118
RightLeg 116.206351 -0.000000 -0.000000
RightFoot -1.116906 -8.458071 15.588452
RightToeBase 14.652903 -0.000000 -0.000000
1449
root -0.009652 31.873663 -6.201644 3.835078 -11.161246 -13.161063
Spine 6.563397 -5.880620 4.333684
Head 3.327642 -18.320603 10.533249
LeftShoulder -15.707467 17.334046 14.634515
LeftArm 6.945139 -35.634560 -75.330972
LeftForeArm -2.067761 -0.000000 127.321565
LeftHand -18.905204 -0.000000 22.218029
LeftHandThumb1 -26.253704 0.000000 33.147579
RightShoulder -13.413311 -3.594716 -6.593202
RightArm 10.984053 -24.615807 70.841026
RightForeArm -28.400953 -0.000000 25.550981
RightHand -14.489691 0.000000 11.456160
RightHandThumb1 -24.326973 -0.000000 -32.862282
LeftUpLeg -7.845294 17.689505 -1.125155
LeftLeg 19.502951 -0.000000 -0.000000
LeftFoot -36.596509 28.319520 -27.455738
LeftToeBase 8.554745 -0.000000 -0.000000
RightUpLeg -82.578837 -30.421127 17.390657
RightLeg 118.475844 -0.000000 -0.000000
RightFoot -0.209219 -8.086864 14.849014
RightToeBase 14.689366 -0.000000 -0.000000
1450
root -0.016012 31.874027 -6.180254 3.823873 -11.147263 -13.137241
Spine 6.475391 -5.800617 4.319284
Head 3.248235 -18.395709 10.494148
LeftShoulder -15.738716 17.324536 14.610984
LeftArm 6.872300 -35.625375 -75.258431
LeftForeArm -2.058839 -0.000000 127.325140
LeftHand -18.856731 0.000000 22.351922
LeftHandThumb1 -26.253704 0.000000 33.147579
RightShoulder -13.372945 -3.545549 -6.655823
RightArm 10.892346 -24.584836 70.923653
RightForeArm -28.511208 -0.000000 25.589059
RightHand -14.423230 -0.000000 11.421918
RightHandThumb1 -24.326973 -0.000000 -32.862282
LeftUpLeg -7.860005 17.601974 -1.137987
LeftLeg 19.612554 -0.000000 -0.000000
LeftFoot -36.582309 28.486406 -27.454634
LeftToeBase 8.397750 -0.000000 -0.000000
RightUpLeg -82.473412 -30.498584 17.547290
RightLeg 120.733974 -0.000000 -0.000000
RightFoot 0.773125 -7.791935 14.049660
RightToeBase 14.696802 -0.000000 -0.000000
1451
root -0.022885 31.874715 -6.161156 3.873081 -11.123545 -13.149043
Spine 6.330240 -5.718472 4.360288
Head 3.147814 -18.455137 10.463306
LeftShoulder -15.785557 17.361942 14.552145
LeftArm 6.833996 -35.546699 -75.161714
LeftForeArm -2.114590 -0.000000 127.366435
LeftHand -18.804973 -0.000000 22.261325
LeftHandThumb1 -26.253704 0.000000 33.147579
RightShoulder -13.397088 -3.632265 -6.675225
RightArm 11.018709 -24.593297 70.894644
RightForeArm -28.533140 0.000000 25.592418
RightHand -14.478747 -0.000000 11.268200
RightHandThumb1 -24.326973 -0.000000 -32.862282
LeftUpLeg -7.946601 17.431902 -1.142722
LeftLeg 19.728990 -0.000000 -0.000000
LeftFoot -36.595799 28.816342 -27.435470
LeftToeBase 7.585366 -0.000000 -0.000000
RightUpLeg -82.389793 -30.545671 17.757417
RightLeg 122.944426 -0.000000 -0.000000
RightFoot 1.809739 -7.592947 13.305030
RightToeBase 14.738034 -0.000000 -0.000000
1452
root -0.031605 31.874129 -6.144406 3.932458 -11.119540 -13.194588
Spine 6.192501 -5.614270 4.431832
Head 3.016386 -18.469221 10.448449
LeftShoulder -15.817892 17.403456 14.528895
LeftArm 6.788931 -35.452780 -75.085968
LeftForeArm -2.227894 -0.000000 127.405799
LeftHand -18.718468 -0.000000 22.218976
LeftHandThumb1 -26.253704 0.000000 33.147579
RightShoulder -13.356605 -3.611734 -6.726773
RightArm 10.965029 -24.564487 70.928788
RightForeArm -28.560644 0.000000 25.644906
RightHand -14.441325 -0.000000 11.270543
RightHandThumb1 -24.326973 -0.000000 -32.862282
LeftUpLeg -8.069887 17.414249 -1.112149
LeftLeg 19.916043 -0.000000 -0.000000
LeftFoot -36.596264 28.949329 -27.357855
LeftToeBase 7.364559 -0.000000 -0.000000
RightUpLeg -82.291911 -30.552363 17.997589
RightLeg 125.084427 -0.000000 -0.000000
RightFoot 2.866074 -7.517891 13.015933
RightToeBase 14.959934 -0.000000 -0.000000
